<?xml version="1.0" encoding="UTF-8"?><svg id="_레이어_64" xmlns="http://www.w3.org/2000/svg" xmlns:xlink="http://www.w3.org/1999/xlink" viewBox="0 0 283.46 283.46"><defs><style>.cls-1,.cls-2,.cls-3,.cls-4{fill:none;}.cls-5{clip-path:url(#clippath);}.cls-2,.cls-6,.cls-7,.cls-8,.cls-9{stroke-width:0px;}.cls-10{fill:#b3b3b3;}.cls-3{stroke:#b2b2b2;stroke-linecap:round;}.cls-3,.cls-4{stroke-linejoin:round;stroke-width:10px;}.cls-11{font-family:DINAlternate-Bold, 'DIN Alternate';font-size:40.57px;font-weight:700;}.cls-4{stroke:#7bc13e;}.cls-6{fill:#5975d5;}.cls-7{fill:#b2b2b2;}.cls-8{fill:#7bc13e;}.cls-9{fill:#e75351;}</style><clipPath id="clippath"><path class="cls-2" d="m70.32,204.15c-1.55-.88-2.76-2.11-3.61-3.71-.86-1.6-1.28-3.45-1.28-5.56v-8.14c0-2.11.43-3.96,1.28-5.56.86-1.6,2.06-2.84,3.61-3.71,1.55-.88,3.35-1.31,5.39-1.31s3.84.44,5.39,1.31c1.55.88,2.76,2.11,3.61,3.71.86,1.6,1.28,3.45,1.28,5.56v8.14c0,2.11-.43,3.96-1.28,5.56-.86,1.6-2.06,2.84-3.61,3.71-1.55.88-3.35,1.31-5.39,1.31s-3.84-.44-5.39-1.31Z"/></clipPath></defs><line class="cls-3" x1="141.77" y1="99.39" x2="98.35" y2="124.47"/><polyline class="cls-4" points="185.23 74.31 141.77 99.39 185.18 124.47"/><path class="cls-6" d="m99.4,118.18s0-.06,0-.1l-17.35,10c-2.39,1.38-3.21,4.44-1.84,6.83,1.38,2.39,4.44,3.22,6.83,1.84l16.63-9.58c-2.5-2.25-4.07-5.4-4.28-8.98Z"/><path class="cls-6" d="m203.32,63.87c-1.38-2.39-4.44-3.22-6.83-1.84l-17.99,10.37c2.23,2.79,3.67,5.69,4.39,9.01l18.59-10.71c2.39-1.38,3.21-4.44,1.84-6.83Z"/><rect class="cls-6" x="93.33" y="53.4" width="10" height="41.81" rx="5" ry="5" transform="translate(-15.23 122.21) rotate(-59.95)"/><path class="cls-6" d="m141.76,104.39c-.85,0-1.71-.22-2.5-.67l-43.41-25.08c-2.39-1.38-3.21-4.44-1.83-6.83,1.38-2.39,4.44-3.21,6.83-1.83l43.42,25.08c2.39,1.38,3.21,4.44,1.83,6.83-.93,1.6-2.61,2.5-4.33,2.5Z"/><rect class="cls-9" x="136.77" y="54.26" width="10" height="89.92"/><path class="cls-6" d="m141.77,143.35c-24.24,0-43.96-19.72-43.96-43.96,0-2.62.24-5.18.69-7.68l-9.11-5.26c-1.02,4.15-1.57,8.48-1.57,12.94,0,29.8,24.16,53.96,53.96,53.96,21.75,0,40.49-12.88,49.03-31.42l-8.71-5.03c-6.78,15.55-22.3,26.45-40.32,26.45Z"/><path class="cls-6" d="m195.73,99.39c0-29.8-24.16-53.96-53.96-53.96-21.75,0-40.49,12.88-49.03,31.42l8.71,5.03c6.78-15.55,22.3-26.45,40.32-26.45,24.24,0,43.96,19.72,43.96,43.96,0,2.62-.24,5.18-.68,7.68l9.11,5.26c1.02-4.15,1.57-8.48,1.57-12.94Z"/><path class="cls-6" d="m137.69,53.59c2.93-.04,6.05-.42,9.07-.3l.02-19.96c0-2.76-2.23-5-5-5-2.76,0-5,2.23-5,5l-.02,20.4c.29-.08.59-.13.93-.13Z"/><path class="cls-6" d="m138,145.84c-.46,0-.86-.1-1.23-.23l-.02,19.84c0,2.76,2.23,5,5,5,2.76,0,5-2.23,5-5l.02-20.15c-2.65,1.1-5.94.58-8.77.53Z"/><circle class="cls-9" cx="203.31" cy="134.92" r="10"/><text class="cls-11" transform="translate(63.21 205.29)"><tspan class="cls-1" x="0" y="0">Q</tspan><tspan class="cls-10" x="24.74" y="0">uantum </tspan></text><g class="cls-5"><path class="cls-9" d="m77.33,175.68c-9.28,0-16.79,7.52-16.79,16.79s7.52,16.79,16.79,16.79,16.79-7.52,16.79-16.79-7.52-16.79-16.79-16.79Zm4.6,19.94c0,3.11-2.52,5.62-5.62,5.62h-1.39c-3.11,0-5.62-2.52-5.62-5.62v-9.69c0-3.11,2.52-5.62,5.62-5.62h1.39c3.11,0,5.62,2.52,5.62,5.62v9.69Z"/><path class="cls-7" d="m76.31,201.24h-1.39c-3.11,0-5.62-2.52-5.62-5.62v-5.76c-4.65,1.42-10.16,5.28-14.92,10.87-8.04,9.44-10.88,20.22-6.35,24.08,4.53,3.86,14.73-.66,22.77-10.09,3.98-4.67,6.68-9.66,7.85-13.99-.71.33-1.5.51-2.34.51Z"/><path class="cls-6" d="m69.3,195.62v-9.69c0-3.11,2.52-5.62,5.62-5.62h1.39c.61,0,1.2.1,1.76.28-.82-2.05-1.91-4.14-3.29-6.19-5.81-8.63-14.32-13.07-19.02-9.91-4.7,3.16-3.8,12.72,2.01,21.35,3.36,5,7.63,8.59,11.54,10.11,0-.11-.02-.23-.02-.34Z"/><path class="cls-8" d="m90.46,169.47c-2.75-2.42-9.4.66-14.85,6.86-1.36,1.55-2.52,3.14-3.45,4.7.81-.46,1.75-.73,2.76-.73h1.39c3.11,0,5.62,2.52,5.62,5.62v2.68c1.23-1.02,2.45-2.2,3.62-3.53,5.46-6.2,7.65-13.19,4.91-15.61Z"/></g><circle class="cls-9" cx="87.35" cy="203.57" r="2.98"/><path class="cls-6" d="m167.71,222.92c-.71-.36-1.51-.57-2.36-.57h-6.15c-.34-.02-.61-.28-.62-.61v-1.81c.02-.33.29-.6.62-.61h6.15c2.8,0,5.07-2.21,5.07-4.94h0s-12.63,0-12.63,0c-2.34,0-4.25,1.8-4.35,4.06v4.78c.08,1.73,1.21,3.18,2.79,3.77.71.36,1.51.57,2.36.57h6.15c.34.02.61.28.62.61v2.38c-.02.33-.29.59-.62.61h-6.15c-2.8,0-5.07,2.21-5.07,4.94h12.63c2.34,0,4.25-1.81,4.35-4.07v-5.35c-.08-1.73-1.21-3.18-2.79-3.77Z"/><path class="cls-8" d="m144.93,214.31h-8.31c-2.35,0-4.26,1.81-4.36,4.07v4c.11,0,.2-.03.32-.03,4.51,0,4.5,7,0,7-.11,0-.21-.02-.32-.03v.99c.7-.91,1.81-1.51,3.35-1.44.6.03,1.2.05,1.8.07v-9.08c.02-.33.29-.6.62-.61h6.16c2.8,0,3.09,1.81,3.09-.92l-2.36-4.02Z"/><path class="cls-8" d="m148.84,228.8c-4.51,0-4.5-7,0-7,.16,0,.3.03.45.04v-3.47c-.1-2.26-2.01-4.07-4.36-4.07h-8.31s-2.9,3.44-2.9,3.44c0,2.73.83,1.5,3.64,1.5h6.16c.34.02.61.28.63.61v9.33c1.72.06,3.43.14,5.14.24v-.68c-.15.02-.29.04-.45.04Z"/><path class="cls-8" d="m144.19,221.76h-6.16c-.34-.02-.61-.28-.62-.61v-4.59s-.1-.01-.15-.02c-.49.26-.97.55-1.38.91-1.15,1.01-2.49,1.09-3.61.65v4.54c.1,2.26,2.01,4.07,4.36,4.07h8.31s2.36-4.02,2.36-4.02c0-2.73-.29-.92-3.09-.92Z"/><path class="cls-8" d="m144.14,217.74v3.41c-.02.33-.29.6-.63.61h-6.16c-2.8,0-3.64-1.23-3.64,1.5l2.9,3.44h8.31c2.35,0,4.26-1.8,4.36-4.07v-3.89c-1.74-.1-3.44-.57-5.14-1.01Z"/><path class="cls-8" d="m144.93,223.75h-8.31c-2.35,0-4.26,1.81-4.36,4.07v3.18c.36.08.7.2.99.37.68.4,1.48,1.28,1.61,2.09.04.25.11.48.18.71.04.07.07.14.11.21.15.28.32.55.5.81.58,0,1.17-.01,1.77-.09v-5.8c.02-.33.29-.6.62-.61h6.16c2.8,0,3.09,1.81,3.09-.92l-2.36-4.02Z"/><path class="cls-8" d="m144.14,229.31v1.74c.83-.27,1.72-.43,2.63-.71.89-.28,1.77-.13,2.51.28v-2.8c-.1-2.26-2.01-4.07-4.36-4.07h-8.31s-2.9,3.44-2.9,3.44c0,2.73.83,1.5,3.64,1.5h6.16c.34.02.61.28.63.61Z"/><path class="cls-8" d="m144.19,231.22h-6.16c-.34-.02-.61-.28-.62-.61v-1.51c-.14-.07-.3-.13-.43-.2-.69-.38-1.23-.91-1.65-1.52-.77.8-1.89,1.19-3.06,1.04v3.68c.1,2.26,2.01,4.07,4.36,4.07h8.31s2.36-4.02,2.36-4.02c0-2.73-.29-.92-3.09-.92Z"/><path class="cls-8" d="m148.84,228.83c-.8,0-1.95-.37-2.47-1.03-.31-.39-.58-.75-.81-1.15,0,.01,0,.02,0,.03-.26.88-.76,1.59-1.4,2.13v1.8c-.02.33-.29.6-.63.61h-6.16c-2.8,0-3.64-1.23-3.64,1.5l2.9,3.44h8.31c2.35,0,4.26-1.8,4.36-4.07v-3.31c-.15.02-.31.05-.45.05Z"/><path class="cls-9" d="m108.98,236.1c2.42,0,5.17-1.87,5.17-5.12v-16.76c-3.14,0-5.19,2.75-5.19,4.88l.02,17Z"/><path class="cls-9" d="m120.69,224.96l8.16-10.27s-4.78-2.17-8.59,2.47l-6.17,7.8h6.61Z"/><path class="cls-9" d="m120.69,224.96l8.16,10.27s-4.78,2.17-8.59-2.47l-6.17-7.8h6.61Z"/></svg>